# xmcd CD database file
#
# Track frame offsets:
#	150
#	15049
#	31952
#	51470
#	67027
#	97418
#	120993
#	139423
#	154579
#	162134
#
# Disc length: 2409 seconds
#
# Revision: 1
# Processed by: cddbd v1.5.2PL0 Copyright (c) Steve Scherf et al.
# Submitted via: CDex 1.51
#
DISCID=8009670a
DTITLE=Dayna Kurtz - American Standard
DYEAR=2009
DGENRE=Jazz
TTITLE0=Invocation
TTITLE1=Good In '62
TTITLE2=Billboards For Jesus
TTITLE3=Are You Dancing With Her Tonight
TTITLE4=Here Comes A Regular
TTITLE5=Don't Go Down
TTITLE6=Hanging Around My Boy
TTITLE7=Lou Lou Knows
TTITLE8=You Fine Girl
TTITLE9=Election Day
EXTD=YEAR: 2009
EXTT0=
EXTT1=
EXTT2=
EXTT3=
EXTT4=
EXTT5=
EXTT6=
EXTT7=
EXTT8=
EXTT9=
PLAYORDER=
